# xmcd
#
# Track frame offsets:
#	150
#	18175
#	32861
#	46443
#	63909
#	75398
#	86330
#	97045
#	114685
#	129247
#	140149
#
# Disc length: 2040 seconds
#
# Revision: 0
# Processed by: cddbd v1.5PL3 Copyright (c) Steve Scherf et al.
# Submitted via: dBpowerAMP V4.0
#
DISCID=8a07f60b
DTITLE=Jim Glaser - Me and My Dream
DYEAR=2003
DGENRE=Country
TTITLE0=She's Free But She's Not Easy
TTITLE1=If I Had You To Love Over Again
TTITLE2=Mason-Dixon Line
TTITLE3=Happy Hour Blues
TTITLE4=Don't Say Love
TTITLE5=I See His Love All Over You
TTITLE6=United Airlines
TTITLE7=When Will It Be My Turn
TTITLE8=Who Were You Thinkin' Of
TTITLE9=Georgia Sunshine
TTITLE10=Hard Times
EXTD=Solitare Records
EXTT0=
EXTT1=
EXTT2=
EXTT3=
EXTT4=
EXTT5=
EXTT6=
EXTT7=
EXTT8=
EXTT9=
EXTT10=
PLAYORDER=
